<?xml version="1.0" encoding="UTF-8"?>
<svg id="Camada_2" data-name="Camada 2" xmlns="http://www.w3.org/2000/svg" viewBox="0 0 102.74 108.1">
  <defs>
    <style>
      .cls-1 {
        fill: #ac1d2e;
        fill-rule: evenodd;
        stroke-width: 0px;
      }
    </style>
  </defs>
  <g id="Layer_1" data-name="Layer 1">
    <path class="cls-1" d="m47.73,45.38l1.32.77v-30.13l-1.32-.77-13.26-8.13L22.88,0v29.98l11.59,7.17,13.26,8.23Zm20.54-3.18l-13.34,8.14-1.4.86v56.9l1.4-.84,13.34-8.23,23.73-14.42,10.74-6.55V21.13l-10.74,6.56-23.73,14.51Zm-33.8-.09l-23.81-14.48L0,21.13v56.91l10.66,6.47,23.81,14.5,13.26,8.23,1.47.84v-56.9l-1.47-.93-13.26-8.16Zm33.8-5.03l11.45-7.1V0l-11.45,7.01-13.34,8.17-1.4.84v30.13l1.4-.84,13.34-8.23Z"/>
  </g>
</svg>