<?xml version="1.0" encoding="UTF-8"?>
<svg id="Camada_2" data-name="Camada 2" xmlns="http://www.w3.org/2000/svg" viewBox="0 0 102.74 108.1">
  <defs>
    <style>
      .cls-1 {
        fill: #ffffff;
        stroke-width: 0px;
      }
    </style>
  </defs>
  <g id="Layer_1" data-name="Layer 1">
    <polygon class="cls-1" points="68.27 37.08 79.71 29.98 79.71 0 68.27 7.01 54.93 15.18 53.53 16.02 53.53 46.15 54.93 45.31 68.27 37.08"/>
    <polygon class="cls-1" points="47.73 45.38 49.05 46.15 49.05 16.02 47.73 15.24 34.47 7.11 22.88 0 22.88 29.98 34.47 37.15 47.73 45.38"/>
    <polygon class="cls-1" points="68.27 42.2 54.93 50.34 53.53 51.2 53.53 108.1 54.93 107.25 68.27 99.02 92 84.6 102.74 78.05 102.74 21.13 92 27.69 68.27 42.2"/>
    <polygon class="cls-1" points="34.47 42.11 10.66 27.63 0 21.13 0 78.05 10.66 84.52 34.47 99.02 47.73 107.25 49.2 108.1 49.2 51.2 47.73 50.27 34.47 42.11"/>
  </g>
</svg>