<?xml version="1.0" encoding="UTF-8"?>
<svg id="Camada_2" data-name="Camada 2" xmlns="http://www.w3.org/2000/svg" viewBox="0 0 203.21 77.82">
  <defs>
    <style>
      .cls-1 {
        fill: #ffffff;
        fill-rule: evenodd;
        stroke-width: 0px;
      }
    </style>
  </defs>
  <g id="Layer_1" data-name="Layer 1">
    <path class="cls-1" d="m8.68,74.24l1.29.33c-.27,1.05-.76,1.86-1.46,2.42-.71.56-1.57.83-2.58.83s-1.91-.21-2.56-.64c-.66-.43-1.16-1.04-1.5-1.86-.34-.81-.52-1.69-.52-2.62,0-1.01.2-1.9.58-2.65.39-.77.94-1.34,1.66-1.73.72-.39,1.51-.6,2.38-.6.97,0,1.8.25,2.46.75.67.5,1.13,1.2,1.39,2.09l-1.27.31c-.23-.72-.56-1.24-.99-1.56-.43-.31-.97-.48-1.62-.48-.76,0-1.38.18-1.89.54-.5.36-.85.84-1.06,1.44-.21.61-.31,1.24-.31,1.87,0,.84.12,1.56.36,2.18.25.61.62,1.08,1.14,1.39.51.31,1.06.46,1.65.46.73,0,1.34-.21,1.84-.63.51-.42.84-1.04,1.02-1.86Zm7.95-2.85c.6.64.9,1.55.9,2.72,0,.07,0,.18,0,.31h-5.27c.05.78.26,1.37.66,1.79.39.42.89.62,1.47.62.45,0,.81-.12,1.14-.35.3-.23.54-.6.73-1.1l1.24.15c-.2.72-.56,1.29-1.08,1.69-.54.39-1.21.59-2.03.59-1.04,0-1.85-.31-2.45-.95-.6-.64-.91-1.52-.91-2.67s.31-2.12.92-2.78c.61-.65,1.41-.99,2.39-.99s1.72.32,2.32.97Zm-.36,2.06c-.05-.61-.21-1.04-.46-1.33-.38-.47-.88-.7-1.49-.7-.55,0-1.01.18-1.38.55-.38.36-.58.86-.62,1.48h3.95Zm8.02-2.19c-.18-.25-.44-.45-.81-.6-.35-.15-.74-.24-1.16-.24-.99,0-1.74.39-2.26,1.17v-1.01h-1.07v7.07h1.2v-3.86c0-.91.18-1.53.55-1.84.38-.33.82-.5,1.33-.5.33,0,.6.08.83.22.24.14.41.33.5.58.09.24.15.61.15,1.08v4.31h1.2v-4.35c0-.55-.02-.94-.07-1.16-.07-.34-.2-.64-.38-.89Zm4.37,5.37c-.18,0-.31-.03-.41-.08-.1-.06-.17-.14-.21-.23-.04-.1-.06-.32-.06-.66v-4.14h1.21v-.92h-1.21v-2.48l-1.19.72v1.76h-.87v.92h.87v4.07c0,.72.05,1.2.15,1.41.09.23.26.41.51.55.24.13.58.2,1.01.2.27,0,.57-.04.9-.11l-.18-1.06c-.21.03-.39.05-.52.05Zm3.52-5.96c-.23.15-.48.49-.76.99v-1.07h-1.08v7.07h1.2v-3.71c0-.51.07-.97.2-1.39.08-.28.24-.51.44-.66.21-.15.44-.24.71-.24.29,0,.59.08.88.26l.41-1.11c-.41-.26-.83-.39-1.23-.39-.28,0-.54.08-.77.25Zm7.97.71c.62.63.92,1.51.92,2.64,0,.91-.13,1.63-.41,2.15-.27.52-.67.92-1.19,1.21-.53.28-1.09.43-1.71.43-.99,0-1.79-.31-2.4-.94-.61-.64-.91-1.55-.91-2.75,0-1.3.36-2.26,1.1-2.9.61-.52,1.34-.79,2.22-.79.97,0,1.76.32,2.39.96Zm-.31,2.7c0-.88-.2-1.54-.59-1.99-.4-.45-.9-.67-1.49-.67s-1.09.22-1.49.67c-.4.45-.6,1.12-.6,2.02s.2,1.6.6,2.05c.4.44.89.67,1.49.67s1.09-.23,1.49-.68c.39-.45.59-1.14.59-2.07Zm12.97-.55c0,1.23-.2,2.05-.6,2.49-.41.42-1.08.64-2.03.64-.56,0-1.03-.11-1.4-.33-.38-.21-.66-.52-.82-.93-.15-.41-.23-1.03-.23-1.87v-5.63h-1.29v5.64c0,1.03.12,1.85.37,2.45.25.59.67,1.06,1.24,1.37.58.31,1.34.47,2.25.47s1.7-.18,2.28-.54c.58-.36.98-.84,1.2-1.41.22-.58.34-1.35.34-2.33v-5.64h-1.3v5.63Zm8.6-2.27c-.18-.25-.44-.45-.8-.6-.35-.15-.74-.24-1.17-.24-.97,0-1.73.39-2.24,1.17v-1.01h-1.09v7.07h1.21v-3.86c0-.91.18-1.53.55-1.84.38-.33.81-.5,1.32-.5.32,0,.6.08.84.22.24.14.4.33.5.58.09.24.14.61.14,1.08v4.31h1.2v-4.35c0-.55-.02-.94-.07-1.16-.07-.34-.2-.64-.38-.89Zm2.29,6.4h1.19v-7.07h-1.19v7.07Zm0-8.38h1.19v-1.38h-1.19v1.38Zm5.97,5.62c-.18.53-.32.97-.44,1.35-.13-.5-.29-.97-.45-1.43l-1.52-4.23h-1.27l2.69,7.07h1.12l2.67-7.07h-1.23l-1.57,4.31Zm9.08-3.51c.61.64.91,1.55.91,2.72,0,.07,0,.18,0,.31h-5.28c.05.78.28,1.37.67,1.79.38.42.88.62,1.47.62.45,0,.81-.12,1.13-.35.31-.23.55-.6.74-1.1l1.24.15c-.2.72-.57,1.29-1.09,1.69-.53.39-1.2.59-2.02.59-1.04,0-1.86-.31-2.47-.95-.6-.64-.91-1.52-.91-2.67s.31-2.12.92-2.78c.61-.65,1.4-.99,2.39-.99.94,0,1.71.32,2.3.97Zm-.36,2.06c-.05-.61-.21-1.04-.45-1.33-.38-.47-.88-.7-1.49-.7-.54,0-1.01.18-1.38.55-.38.36-.59.86-.63,1.48h3.95Zm4.56-2.78c-.23.15-.48.49-.77.99v-1.07h-1.07v7.07h1.2v-3.71c0-.51.06-.97.19-1.39.08-.28.24-.51.44-.66.21-.15.44-.24.71-.24.3,0,.59.08.88.26l.41-1.11c-.42-.26-.83-.39-1.24-.39-.28,0-.54.08-.77.25Zm7.03,3.25c-.33-.14-.92-.32-1.77-.55-.58-.16-.94-.27-1.06-.3-.21-.09-.37-.19-.46-.32-.09-.13-.14-.26-.14-.43,0-.24.11-.45.35-.64.23-.18.62-.27,1.17-.27.46,0,.82.1,1.07.3.26.21.41.5.47.86l1.17-.16c-.07-.45-.2-.82-.41-1.1-.2-.28-.51-.49-.93-.64-.42-.16-.9-.25-1.46-.25-.38,0-.72.05-1.04.15-.32.1-.58.21-.76.35-.25.17-.44.4-.59.67-.14.27-.21.56-.21.88s.09.65.26.94c.18.29.44.51.78.68.34.17.94.36,1.82.58.65.18,1.06.3,1.23.41.23.16.35.37.35.64,0,.31-.14.56-.4.79-.26.22-.67.34-1.23.34s-.97-.13-1.27-.38c-.3-.25-.49-.61-.55-1.1l-1.18.19c.12.75.44,1.31.91,1.7.49.37,1.18.56,2.1.56.56,0,1.05-.1,1.5-.28.43-.19.77-.47,1-.82.24-.34.35-.73.35-1.13s-.1-.74-.28-1.02c-.19-.28-.46-.49-.8-.64Zm2.51,3.74h1.2v-7.07h-1.2v7.07Zm0-8.38h1.2v-1.38h-1.2v1.38Zm5.11,7.35c-.18,0-.31-.03-.41-.08-.1-.06-.16-.14-.21-.23-.04-.1-.06-.32-.06-.66v-4.14h1.2v-.92h-1.2v-2.48l-1.19.72v1.76h-.88v.92h.88v4.07c0,.72.05,1.2.15,1.41.1.23.27.41.5.55.25.13.58.2,1.02.2.27,0,.57-.04.91-.11l-.18-1.06c-.21.03-.39.05-.53.05Zm7.5.18c.05.29.15.58.31.85h-1.26c-.12-.25-.2-.54-.24-.87-.45.38-.87.64-1.28.81-.41.15-.85.22-1.32.22-.78,0-1.37-.18-1.8-.56-.41-.38-.62-.87-.62-1.46,0-.34.08-.66.23-.95.16-.28.37-.52.62-.68.26-.18.55-.31.87-.4.24-.06.58-.12,1.07-.18.97-.12,1.68-.25,2.13-.42,0-.15,0-.26,0-.3,0-.49-.12-.84-.34-1.04-.31-.27-.76-.4-1.37-.4-.56,0-.98.09-1.25.29-.27.19-.47.55-.6,1.05l-1.17-.16c.11-.5.28-.9.52-1.21.25-.31.6-.54,1.06-.71.47-.17,1-.25,1.6-.25s1.1.08,1.47.22c.38.13.65.32.83.53.18.21.31.48.38.81.04.21.06.58.06,1.1v1.6c0,1.11.03,1.82.08,2.11Zm-1.29-2.69c-.44.18-1.09.32-1.96.45-.49.07-.84.15-1.04.24-.21.08-.36.21-.47.39-.11.17-.17.35-.17.56,0,.33.13.59.37.81.25.21.6.31,1.06.31s.88-.09,1.23-.3c.35-.2.62-.48.78-.83.14-.27.2-.67.2-1.2v-.44Zm.12-6.27h-1.56l-.89,1.86h1l1.46-1.86Zm4.78,2.82c-.24.15-.49.49-.77.99v-1.07h-1.07v7.07h1.2v-3.71c0-.51.06-.97.2-1.39.08-.28.24-.51.45-.66.21-.15.45-.24.7-.24.29,0,.59.08.88.26l.41-1.11c-.41-.26-.82-.39-1.22-.39-.29,0-.54.08-.77.25Zm2.71-1.39h1.2v-1.38h-1.2v1.38Zm0,8.38h1.2v-7.07h-1.2v7.07Zm8.28-6.27c.62.63.93,1.51.93,2.64,0,.91-.14,1.63-.41,2.15-.28.52-.67.92-1.2,1.21-.51.28-1.09.43-1.71.43-.98,0-1.78-.31-2.39-.94s-.92-1.55-.92-2.75c0-1.3.37-2.26,1.1-2.9.61-.52,1.35-.79,2.22-.79.97,0,1.77.32,2.39.96Zm-.3,2.7c0-.88-.2-1.54-.6-1.99-.4-.45-.9-.67-1.49-.67s-1.09.22-1.49.67c-.39.45-.59,1.12-.59,2.02s.2,1.6.59,2.05c.4.44.89.67,1.49.67s1.1-.23,1.5-.68c.39-.45.59-1.14.59-2.07ZM8.08,31.26c2.17,1.41,4.99,2.12,8.49,2.12s6.2-.91,8.54-2.75c2.32-1.86,3.94-4.53,4.83-8.04l-4.27-1.08c-.59,2.72-1.72,4.76-3.38,6.15-1.66,1.37-3.68,2.06-6.08,2.06-1.97,0-3.79-.51-5.48-1.52-1.69-1-2.93-2.55-3.74-4.6-.81-2.06-1.2-4.43-1.2-7.2,0-2.12.34-4.19,1.01-6.19.67-2,1.84-3.6,3.51-4.79,1.67-1.19,3.74-1.78,6.22-1.78,2.16,0,3.95.54,5.37,1.61,1.43,1.07,2.52,2.78,3.27,5.14l4.2-1c-.87-2.99-2.41-5.3-4.6-6.94-2.2-1.65-4.92-2.46-8.15-2.46-2.85,0-5.46.64-7.83,1.94-2.37,1.3-4.2,3.21-5.49,5.7-1.29,2.51-1.93,5.44-1.93,8.81,0,3.08.57,5.97,1.7,8.66,1.14,2.68,2.8,4.73,4.99,6.15Zm41.55-13.27c0-.55.02-.9.02-1.04,0-1.61-.38-2.75-1.13-3.41-1.01-.9-2.52-1.34-4.51-1.34-1.86,0-3.23.32-4.13.97-.88.66-1.54,1.81-1.97,3.47l-3.87-.52c.35-1.66.93-3,1.73-4.02.8-1.03,1.98-1.81,3.51-2.36,1.53-.55,3.29-.83,5.31-.83s3.62.25,4.86.71c1.25.48,2.16,1.07,2.76,1.78.58.71,1,1.61,1.23,2.71.13.67.2,1.89.2,3.64v5.29c0,3.69.08,6.02.25,7,.17.97.5,1.91,1,2.81h-4.13c-.41-.82-.68-1.78-.79-2.89-1.48,1.25-2.89,2.14-4.25,2.65-1.36.51-2.82.77-4.37.77-2.58,0-4.55-.62-5.93-1.89-1.37-1.24-2.06-2.85-2.06-4.8,0-1.16.25-2.19.78-3.15.51-.95,1.2-1.71,2.04-2.28.86-.58,1.8-1,2.86-1.3.78-.21,1.94-.41,3.51-.61,3.21-.38,5.57-.83,7.08-1.36Zm0,3.1c-1.45.6-3.61,1.1-6.47,1.5-1.63.24-2.79.5-3.47.8-.67.28-1.2.71-1.56,1.29-.37.57-.55,1.19-.55,1.87,0,1.06.4,1.94,1.2,2.65.8.7,1.97,1.04,3.51,1.04s2.88-.32,4.07-.99c1.18-.67,2.07-1.6,2.62-2.75.43-.9.64-2.22.64-3.96v-1.46Zm10.88,4.89c0,2.38.16,3.94.49,4.68.31.74.88,1.34,1.66,1.8.8.45,1.9.68,3.35.68.88,0,1.88-.12,2.99-.35l-.58-3.51c-.71.11-1.3.16-1.74.16-.58,0-1.04-.09-1.35-.29-.32-.19-.54-.44-.68-.77-.14-.32-.21-1.05-.21-2.18v-13.68h3.98v-3.08h-3.98V1.27l-3.94,2.38v5.79h-2.91v3.08h2.91v13.46ZM87.73.37h-5.19l-2.94,6.17h3.29l4.84-6.17Zm-13.86,29.84c-2.03-2.09-3.03-5.12-3.03-9.08,0-4.33,1.2-7.54,3.61-9.62,2.01-1.73,4.46-2.61,7.35-2.61,3.22,0,5.85,1.06,7.89,3.17,2.05,2.11,3.06,5.01,3.06,8.73,0,3.01-.45,5.38-1.36,7.1-.91,1.73-2.22,3.07-3.93,4.02-1.73.96-3.62,1.43-5.67,1.43-3.27,0-5.91-1.05-7.93-3.15Zm1.04-9.08c0,3,.65,5.25,1.97,6.73,1.3,1.5,2.95,2.24,4.92,2.24s3.61-.74,4.92-2.24c1.3-1.5,1.96-3.79,1.96-6.86,0-2.89-.66-5.09-1.97-6.57-1.32-1.49-2.95-2.23-4.91-2.23s-3.61.74-4.92,2.22c-1.32,1.48-1.97,3.72-1.97,6.71ZM101.28.54h-3.96v32.29h3.96V.54Zm10.13,8.9h-3.97v23.39h3.97V9.44Zm0-8.9h-3.97v4.56h3.97V.54Zm15.46,32.82c2.55,0,4.72-.77,6.47-2.28,1.76-1.52,2.85-3.63,3.28-6.31l-3.9-.51c-.28,1.97-.94,3.45-1.99,4.4-1.05.95-2.35,1.43-3.9,1.43-1.93,0-3.51-.71-4.71-2.13-1.21-1.43-1.81-3.71-1.81-6.86s.62-5.36,1.87-6.78c1.24-1.44,2.87-2.15,4.87-2.15,1.32,0,2.45.39,3.38,1.18.93.8,1.57,1.98,1.95,3.54l3.85-.59c-.45-2.37-1.49-4.19-3.11-5.47-1.61-1.29-3.7-1.94-6.24-1.94-2,0-3.88.48-5.58,1.43-1.72.94-2.98,2.36-3.83,4.27-.83,1.89-1.26,4.1-1.26,6.63,0,3.91.98,6.9,2.93,9.01,1.93,2.08,4.52,3.13,7.71,3.13Zm28.07-15.37c0-.55.01-.9.01-1.04,0-1.61-.38-2.75-1.12-3.41-1.01-.9-2.52-1.34-4.51-1.34-1.87,0-3.25.32-4.13.97-.9.66-1.54,1.81-1.97,3.47l-3.88-.52c.36-1.66.94-3,1.75-4.02.8-1.03,1.97-1.81,3.5-2.36,1.53-.55,3.29-.83,5.31-.83s3.62.25,4.87.71c1.24.48,2.16,1.07,2.75,1.78.58.71.99,1.61,1.23,2.71.13.67.21,1.89.21,3.64v5.29c0,3.69.07,6.02.25,7,.17.97.51,1.91,1,2.81h-4.13c-.41-.82-.68-1.78-.8-2.89-1.46,1.25-2.88,2.14-4.23,2.65-1.36.51-2.82.77-4.37.77-2.57,0-4.54-.62-5.93-1.89-1.37-1.24-2.06-2.85-2.06-4.8,0-1.16.26-2.19.78-3.15.51-.95,1.2-1.71,2.04-2.28.85-.58,1.8-1,2.86-1.3.77-.21,1.95-.41,3.51-.61,3.21-.38,5.57-.83,7.08-1.36Zm0,3.1c-1.45.6-3.6,1.1-6.48,1.5-1.63.24-2.79.5-3.46.8-.67.28-1.2.71-1.56,1.29-.37.57-.55,1.19-.55,1.87,0,1.06.4,1.94,1.2,2.65.8.7,1.97,1.04,3.51,1.04s2.88-.32,4.08-.99c1.18-.67,2.06-1.6,2.62-2.75.43-.9.64-2.22.64-3.96v-1.46Zm11.95,8.35c-.55-1.19-.83-2.55-.83-4.09s.25-2.87.75-4.1c.51-1.23,1.25-2.16,2.25-2.82,1-.66,2.13-.98,3.38-.98.9,0,1.71.19,2.42.58.71.38,1.3.88,1.74,1.5v-7.48h2.53v20.82h-2.36v-1.9c-.96,1.5-2.36,2.25-4.22,2.25-1.2,0-2.31-.33-3.31-.99-1-.66-1.79-1.59-2.35-2.78Zm1.8-4.09c0,1.93.41,3.37,1.21,4.32.81.97,1.78,1.44,2.88,1.44s2.07-.46,2.85-1.37c.77-.91,1.17-2.31,1.17-4.18,0-2.06-.39-3.58-1.19-4.54-.8-.97-1.77-1.45-2.95-1.45s-2.08.47-2.85,1.39c-.76.93-1.14,2.39-1.14,4.4Zm15.55,5.82c-1.29-1.36-1.93-3.26-1.93-5.72s.65-4.5,1.96-5.91c1.31-1.4,3-2.1,5.09-2.1s3.66.68,4.94,2.06c1.27,1.38,1.92,3.31,1.92,5.8,0,.15,0,.38-.02.68h-11.25c.09,1.66.56,2.92,1.4,3.8.84.88,1.89,1.33,3.15,1.33.94,0,1.73-.25,2.4-.74.66-.49,1.19-1.27,1.57-2.36l2.64.32c-.41,1.55-1.18,2.75-2.32,3.6-1.12.85-2.56,1.28-4.31,1.28-2.21,0-3.95-.68-5.25-2.04Zm.84-7.3h8.42c-.12-1.26-.44-2.22-.97-2.85-.81-.98-1.86-1.48-3.16-1.48-1.17,0-2.15.39-2.96,1.18-.8.78-1.23,1.83-1.33,3.14ZM13.2,54.69c-.81.31-1.73.46-2.78.46-1.18,0-2.25-.2-3.19-.61-.94-.41-1.64-.94-2.09-1.61-.45-.67-.74-1.53-.86-2.57l-2.59.23c.03,1.39.41,2.65,1.13,3.74.73,1.1,1.73,1.92,3,2.47,1.27.56,2.85.82,4.73.82,1.48,0,2.82-.26,4.01-.81,1.18-.55,2.09-1.31,2.73-2.29.63-.99.94-2.03.94-3.13s-.28-2.1-.86-2.97c-.57-.85-1.47-1.55-2.68-2.12-.84-.38-2.36-.82-4.61-1.33-2.24-.51-3.61-1-4.15-1.49-.54-.48-.81-1.09-.81-1.84,0-.86.38-1.6,1.14-2.22.76-.6,1.97-.91,3.64-.91s2.81.33,3.63,1c.81.67,1.3,1.67,1.44,2.98l2.64-.19c-.05-1.23-.4-2.32-1.02-3.28-.64-.95-1.54-1.7-2.72-2.19-1.18-.51-2.54-.75-4.09-.75-1.39,0-2.67.25-3.81.71-1.14.48-2.02,1.17-2.62,2.09-.59.91-.89,1.9-.89,2.95,0,.95.25,1.82.73,2.58.48.78,1.23,1.43,2.22,1.94.77.41,2.11.84,4.01,1.3,1.92.47,3.15.81,3.71,1.02.87.34,1.49.74,1.87,1.23.38.49.57,1.06.57,1.71s-.19,1.23-.59,1.79c-.39.54-.99.97-1.8,1.28Zm15.21-12.83c1.29,0,2.33.15,3.14.45.8.31,1.39.68,1.78,1.15.38.46.64,1.02.79,1.73.08.43.13,1.22.13,2.35v3.4c0,2.39.05,3.89.16,4.52.11.62.33,1.23.64,1.8h-2.67c-.26-.52-.43-1.13-.51-1.86-.95.81-1.86,1.37-2.73,1.7-.88.34-1.83.5-2.82.5-1.66,0-2.93-.41-3.82-1.21-.89-.81-1.34-1.85-1.34-3.1,0-.74.17-1.42.51-2.03.33-.61.77-1.1,1.32-1.46.55-.38,1.16-.66,1.84-.84.5-.14,1.26-.27,2.27-.39,2.06-.25,3.58-.54,4.56-.88,0-.35.02-.57.02-.67,0-1.04-.25-1.76-.73-2.2-.64-.58-1.62-.86-2.91-.86-1.2,0-2.09.21-2.67.62-.57.43-.99,1.17-1.27,2.25l-2.49-.35c.22-1.07.6-1.94,1.12-2.59.51-.66,1.27-1.17,2.25-1.53.99-.35,2.12-.52,3.42-.52Zm3.25,7.85c-.93.38-2.32.7-4.17.97-1.05.15-1.79.32-2.23.51-.44.18-.77.46-1.01.84-.24.36-.36.77-.36,1.21,0,.68.27,1.25.77,1.7.51.45,1.27.69,2.25.69s1.87-.22,2.64-.66c.77-.42,1.34-1.02,1.69-1.76.28-.58.41-1.44.41-2.55v-.94Zm19.16,7.56v-9.26c0-1.19-.05-2.02-.14-2.49-.16-.73-.42-1.36-.8-1.88-.38-.54-.94-.97-1.71-1.29-.77-.33-1.6-.49-2.51-.49-2.09,0-3.68.82-4.8,2.49v-2.14h-2.3v15.07h2.55v-8.23c0-1.93.39-3.24,1.19-3.94.8-.68,1.73-1.04,2.81-1.04.69,0,1.28.15,1.8.47.5.3.86.71,1.05,1.22.21.53.3,1.31.3,2.35v9.17h2.55Zm2.88-13.09h1.87v8.68c0,1.54.11,2.54.31,3.02.21.48.57.87,1.07,1.16.51.29,1.24.44,2.16.44.57,0,1.21-.07,1.93-.22l-.37-2.26c-.46.06-.84.1-1.13.1-.38,0-.67-.07-.88-.19-.21-.12-.35-.28-.44-.49-.08-.21-.13-.68-.13-1.41v-8.81h2.57v-1.98h-2.57v-5.28l-2.55,1.54v3.74h-1.87v1.98Zm12.8-1.8c.98-.35,2.13-.52,3.42-.52s2.33.15,3.14.45c.8.31,1.4.68,1.79,1.15.37.46.63,1.02.79,1.73.09.43.12,1.22.12,2.35v3.4c0,2.39.06,3.89.17,4.52.1.62.32,1.23.64,1.8h-2.67c-.26-.52-.44-1.13-.51-1.86-.95.81-1.86,1.37-2.73,1.7-.87.34-1.82.5-2.82.5-1.66,0-2.93-.41-3.82-1.21-.89-.81-1.33-1.85-1.33-3.1,0-.74.16-1.42.51-2.03.33-.61.77-1.1,1.32-1.46.54-.38,1.15-.66,1.83-.84.5-.14,1.26-.27,2.27-.39,2.06-.25,3.58-.54,4.56-.88.01-.35.01-.57.01-.67,0-1.04-.24-1.76-.73-2.2-.64-.58-1.62-.86-2.91-.86-1.2,0-2.09.21-2.66.62-.58.43-.99,1.17-1.27,2.25l-2.49-.35c.23-1.07.6-1.94,1.12-2.59.51-.66,1.27-1.17,2.25-1.53Zm6.67,7.33c-.93.38-2.32.7-4.17.97-1.05.15-1.79.32-2.22.51-.44.18-.78.46-1.01.84-.24.36-.36.77-.36,1.21,0,.68.26,1.25.78,1.7.51.45,1.27.69,2.26.69s1.86-.22,2.62-.66c.77-.42,1.33-1.02,1.7-1.76.28-.58.41-1.44.41-2.55v-.94Zm19.29-12.34c-1.53.84-2.71,2.06-3.54,3.67-.83,1.63-1.24,3.51-1.24,5.68,0,1.99.38,3.84,1.1,5.58.72,1.73,1.8,3.05,3.21,3.96,1.41.91,3.23,1.37,5.48,1.37s4-.58,5.5-1.78c1.5-1.18,2.55-2.91,3.12-5.17l-2.76-.7c-.38,1.75-1.11,3.08-2.17,3.97-1.07.89-2.38,1.33-3.91,1.33-1.27,0-2.46-.32-3.54-.99-1.08-.64-1.89-1.63-2.4-2.95-.52-1.32-.78-2.86-.78-4.63,0-1.37.21-2.7.65-4,.43-1.3,1.19-2.32,2.26-3.09,1.08-.77,2.41-1.15,4-1.15,1.39,0,2.55.35,3.47,1.04.92.7,1.62,1.79,2.1,3.31l2.71-.64c-.55-1.92-1.54-3.4-2.96-4.46-1.42-1.07-3.17-1.6-5.25-1.6-1.83,0-3.51.42-5.05,1.26Zm20.01,5.02c.98-.35,2.12-.52,3.42-.52s2.33.15,3.13.45c.8.31,1.4.68,1.78,1.15.38.46.64,1.02.8,1.73.09.43.13,1.22.13,2.35v3.4c0,2.39.05,3.89.16,4.52.11.62.32,1.23.64,1.8h-2.67c-.27-.52-.43-1.13-.51-1.86-.96.81-1.87,1.37-2.74,1.7-.87.34-1.82.5-2.82.5-1.65,0-2.92-.41-3.81-1.21-.89-.81-1.33-1.85-1.33-3.1,0-.74.17-1.42.51-2.03.33-.61.77-1.1,1.32-1.46.54-.38,1.16-.66,1.84-.84.5-.14,1.25-.27,2.27-.39,2.05-.25,3.58-.54,4.56-.88.01-.35.01-.57.01-.67,0-1.04-.25-1.76-.73-2.2-.64-.58-1.63-.86-2.91-.86-1.2,0-2.09.21-2.66.62-.58.43-1,1.17-1.27,2.25l-2.5-.35c.24-1.07.61-1.94,1.13-2.59.51-.66,1.27-1.17,2.25-1.53Zm6.67,7.33c-.94.38-2.32.7-4.17.97-1.05.15-1.8.32-2.23.51-.44.18-.78.46-1,.84-.24.36-.36.77-.36,1.21,0,.68.26,1.25.77,1.7.51.45,1.27.69,2.26.69s1.87-.22,2.63-.66c.76-.42,1.33-1.02,1.68-1.76.28-.58.42-1.44.42-2.55v-.94Zm7.69,6.17c.21.48.57.87,1.07,1.16.51.29,1.24.44,2.17.44.55,0,1.2-.07,1.93-.22l-.38-2.26c-.47.06-.83.1-1.12.1-.38,0-.67-.07-.88-.19-.21-.12-.35-.28-.45-.49-.08-.21-.13-.68-.13-1.41v-8.81h2.57v-1.98h-2.57v-5.28l-2.54,1.54v3.74h-1.88v1.98h1.88v8.68c0,1.54.11,2.54.31,3.02Zm10.62-13.49c.98-.35,2.12-.52,3.41-.52s2.33.15,3.14.45c.8.31,1.4.68,1.78,1.15.37.46.64,1.02.79,1.73.09.43.13,1.22.13,2.35v3.4c0,2.39.05,3.89.15,4.52.12.62.34,1.23.65,1.8h-2.66c-.27-.52-.45-1.13-.51-1.86-.94.81-1.86,1.37-2.73,1.7-.88.34-1.82.5-2.82.5-1.66,0-2.93-.41-3.82-1.21-.88-.81-1.33-1.85-1.33-3.1,0-.74.16-1.42.5-2.03.34-.61.77-1.1,1.32-1.46.54-.38,1.16-.66,1.84-.84.5-.14,1.26-.27,2.27-.39,2.06-.25,3.58-.54,4.55-.88.02-.35.02-.57.02-.67,0-1.04-.25-1.76-.73-2.2-.65-.58-1.63-.86-2.91-.86-1.2,0-2.09.21-2.67.62-.57.43-.99,1.17-1.27,2.25l-2.49-.35c.23-1.07.6-1.94,1.12-2.59.52-.66,1.27-1.17,2.26-1.53Zm6.66,7.33c-.92.38-2.31.7-4.17.97-1.05.15-1.8.32-2.23.51-.43.18-.78.46-1.01.84-.24.36-.36.77-.36,1.21,0,.68.27,1.25.77,1.7.51.45,1.27.69,2.27.69s1.86-.22,2.62-.66c.77-.42,1.33-1.02,1.69-1.76.28-.58.41-1.44.41-2.55v-.94Zm6.89-7.5v15.07h2.55v-7.89c0-1.07.15-2.06.43-2.98.19-.6.51-1.06.95-1.4.45-.33.94-.5,1.51-.5.62,0,1.25.18,1.86.54l.89-2.37c-.9-.55-1.77-.82-2.63-.82-.59,0-1.14.17-1.63.51-.51.35-1.04,1.05-1.63,2.12v-2.28h-2.29Zm12.63,0h-2.55v15.07h2.55v-15.07Zm0-5.75h-2.55v2.95h2.55v-2.95Zm13.86,5.89c-.77-.33-1.6-.49-2.51-.49-2.09,0-3.69.82-4.8,2.49v-2.14h-2.29v15.07h2.55v-8.23c0-1.93.39-3.24,1.18-3.94.8-.68,1.73-1.04,2.82-1.04.68,0,1.28.15,1.79.47.51.3.86.71,1.06,1.22.2.53.3,1.31.3,2.35v9.17h2.55v-9.26c0-1.19-.04-2.02-.14-2.49-.15-.73-.42-1.36-.81-1.88-.38-.54-.94-.97-1.7-1.29Zm18.21,1.11c.38.46.64,1.02.8,1.73.08.43.13,1.22.13,2.35v3.4c0,2.39.05,3.89.16,4.52.11.62.32,1.23.64,1.8h-2.66c-.26-.52-.44-1.13-.51-1.86-.94.81-1.86,1.37-2.72,1.7-.88.34-1.83.5-2.82.5-1.66,0-2.93-.41-3.82-1.21-.88-.81-1.33-1.85-1.33-3.1,0-.74.16-1.42.51-2.03.34-.61.77-1.1,1.31-1.46.56-.38,1.16-.66,1.85-.84.5-.14,1.26-.27,2.26-.39,2.07-.25,3.59-.54,4.56-.88,0-.35.02-.57.02-.67,0-1.04-.25-1.76-.73-2.2-.65-.58-1.63-.86-2.91-.86-1.2,0-2.09.21-2.67.62-.57.43-.99,1.17-1.27,2.25l-2.49-.35c.23-1.07.61-1.94,1.11-2.59.52-.66,1.28-1.17,2.26-1.53.98-.35,2.12-.52,3.42-.52s2.33.15,3.14.45c.81.31,1.4.68,1.77,1.15Zm-1.66,6.25c-.93.38-2.33.7-4.17.97-1.07.15-1.8.32-2.24.51-.43.18-.78.46-1.01.84-.24.36-.36.77-.36,1.21,0,.68.27,1.25.77,1.7.52.45,1.27.69,2.26.69s1.86-.22,2.63-.66c.77-.42,1.33-1.02,1.69-1.76.28-.58.41-1.44.41-2.55v-.94ZM0,61.56v1.47h203.21v-1.47H0Z"/>
  </g>
</svg>